<?xml version="1.0" standalone="no"?>
<!DOCTYPE svg PUBLIC "-//W3C//DTD SVG 20010904//EN"
 "http://www.w3.org/TR/2001/REC-SVG-20010904/DTD/svg10.dtd">
<svg version="1.0" xmlns="http://www.w3.org/2000/svg"
 width="512.000000pt" height="512.000000pt" viewBox="0 0 512.000000 512.000000"
 preserveAspectRatio="xMidYMid meet">
<metadata>
Created by potrace 1.14, written by Peter Selinger 2001-2017
</metadata>
<g transform="translate(0.000000,512.000000) scale(0.100000,-0.100000)"
fill="#000000" stroke="none">
<path d="M1101 3582 c3 -19 -3 -22 -21 -12 -16 9 -18 8 -14 -5 3 -8 9 -13 13
-10 4 2 8 -2 8 -10 0 -10 -6 -10 -26 3 -25 16 -25 16 -11 -2 14 -18 13 -19
-17 -14 -20 3 -30 1 -26 -6 4 -5 -1 -7 -10 -3 -9 3 -19 2 -22 -3 -3 -5 9 -7
27 -5 31 4 32 3 10 -8 -12 -7 -19 -17 -15 -22 4 -5 0 -3 -9 4 -13 10 -18 10
-18 2 0 -7 -4 -10 -9 -7 -11 7 -23 -22 -14 -36 3 -6 1 -8 -5 -4 -5 3 -12 3
-15 -1 -2 -5 -2 -2 0 5 1 7 -2 10 -7 7 -6 -3 -10 -12 -10 -20 0 -8 -5 -17 -12
-21 -7 -4 -8 -3 -4 4 4 7 2 12 -3 12 -6 0 -11 -4 -11 -8 0 -4 -14 -16 -30 -25
-25 -15 -28 -22 -20 -37 8 -15 7 -17 -12 -12 -14 3 -19 1 -14 -6 4 -7 1 -12
-9 -12 -10 0 -13 5 -9 12 4 7 3 8 -5 4 -9 -6 -9 -11 0 -22 14 -17 -2 -19 -21
-1 -8 6 -6 2 5 -11 14 -17 16 -23 5 -20 -8 2 -14 -2 -13 -9 1 -6 -8 -10 -22
-8 -27 2 -31 -5 -14 -22 9 -9 7 -10 -9 -6 -12 3 -29 2 -38 -1 -14 -5 -14 -9
-3 -23 13 -15 12 -15 -9 -4 -27 15 -42 7 -22 -12 10 -10 11 -9 5 3 -8 13 -7
13 8 1 21 -17 22 -16 -13 -17 -18 -1 -27 2 -23 9 3 6 1 7 -6 3 -6 -4 -8 -12
-5 -18 5 -8 1 -9 -11 -4 -16 6 -16 4 -4 -11 12 -15 12 -16 -4 -10 -11 4 -17 1
-17 -9 0 -8 4 -13 9 -9 5 3 13 1 16 -5 4 -6 1 -9 -7 -8 -7 2 -12 -3 -10 -10 1
-8 -2 -11 -8 -7 -6 3 -8 10 -5 15 3 5 1 11 -5 15 -5 3 -10 -1 -10 -10 0 -9 -5
-13 -11 -9 -8 4 -8 1 -1 -13 9 -15 8 -20 -3 -20 -8 0 -12 4 -9 9 3 4 0 8 -5 8
-6 0 -11 -9 -11 -20 0 -23 0 -23 -37 -10 l-28 10 23 -18 c22 -17 22 -19 6 -33
-19 -15 -24 -16 -33 -1 -3 6 -12 3 -21 -6 -13 -14 -12 -15 2 -10 12 5 15 2 11
-13 -3 -10 -10 -19 -15 -19 -5 0 -7 4 -3 9 3 6 -3 9 -13 8 -10 0 -19 -7 -19
-14 0 -6 5 -9 11 -6 7 4 7 1 0 -6 -9 -10 -17 -10 -34 -1 -21 11 -21 11 -3 -17
l18 -28 -27 18 -28 17 10 -27 10 -28 -21 25 c-21 24 -21 24 -15 2 5 -15 3 -24
-8 -28 -9 -3 -13 -11 -9 -18 4 -6 0 -6 -9 2 -14 11 -19 8 -38 -18 -12 -16 -26
-27 -32 -24 -7 4 -8 2 -4 -4 7 -11 -7 -17 -29 -12 -5 1 -1 -8 9 -19 11 -12 16
-24 13 -28 -4 -3 -7 -1 -7 6 0 7 -5 9 -10 6 -8 -5 -7 -12 1 -23 6 -10 0 -4
-15 11 -28 30 -33 28 -14 -6 10 -19 9 -20 -4 -9 -13 10 -17 10 -20 0 -4 -10
-9 -10 -24 2 -18 14 -18 14 -5 -2 12 -16 10 -19 -13 -28 -15 -5 -29 -16 -32
-25 -3 -8 -10 -13 -14 -10 -10 6 -8 -15 3 -32 12 -20 -4 -15 -19 4 -7 10 -16
15 -20 11 -4 -4 -1 -15 7 -25 8 -9 9 -14 3 -10 -8 5 -12 -14 -11 -67 0 -70 1
-73 23 -70 18 2 22 -2 19 -18 -4 -17 -2 -18 12 -6 14 11 16 11 8 -1 -6 -11 -4
-13 7 -9 8 4 15 0 15 -8 0 -7 -5 -10 -11 -7 -6 4 -2 -3 8 -15 11 -12 26 -22
35 -21 10 0 7 4 -8 10 -13 5 -22 12 -19 15 3 2 17 -1 32 -7 30 -14 36 -40 7
-32 -10 3 -21 1 -24 -4 -3 -5 7 -8 21 -7 15 0 33 -6 40 -15 11 -14 12 -13 3 5
-8 16 -7 21 4 21 8 0 13 -5 12 -11 -1 -6 4 -10 12 -8 12 3 12 1 0 -14 -9 -12
-9 -15 -1 -10 6 4 12 3 12 -3 0 -5 -3 -11 -7 -14 -5 -2 -3 -2 4 -1 6 2 14 0
16 -4 2 -4 2 -1 1 6 -3 10 1 10 18 1 21 -11 21 -12 2 -27 -18 -13 -16 -14 16
-8 22 4 30 3 21 -3 -8 -5 -10 -14 -6 -21 6 -10 11 -9 22 5 15 22 17 12 3 -15
-9 -16 -7 -18 11 -15 15 3 19 0 15 -10 -6 -17 10 -30 19 -15 5 8 11 7 22 -1
13 -11 13 -15 -4 -27 -17 -13 -16 -14 6 -7 16 5 21 4 17 -4 -4 -6 -3 -11 3
-11 5 0 12 6 15 13 4 6 4 1 2 -13 -5 -24 -5 -24 10 -5 l16 20 -4 -20 c-2 -16
2 -19 22 -17 18 1 21 -1 11 -7 -10 -6 -6 -11 15 -20 21 -8 23 -10 6 -7 -18 3
-21 1 -13 -8 6 -7 7 -17 3 -22 -4 -4 0 -3 8 3 21 16 45 0 36 -23 -6 -16 -5
-16 15 2 l22 19 -12 -23 c-7 -12 -8 -22 -4 -21 20 3 27 -2 13 -11 -11 -8 -7
-9 14 -4 28 7 29 6 22 -22 -7 -27 -6 -27 7 -10 11 15 16 16 22 6 6 -9 4 -11
-6 -6 -8 4 -1 -4 14 -18 29 -27 54 -35 41 -14 -4 7 -3 8 5 4 6 -4 9 -12 6 -17
-4 -5 2 -17 11 -27 16 -15 17 -15 12 0 -7 16 18 35 30 23 3 -3 0 -5 -6 -5 -7
0 -12 -6 -12 -14 0 -16 27 -29 42 -19 6 3 8 1 5 -4 -4 -6 2 -18 13 -28 11 -10
16 -24 12 -33 -5 -15 -4 -15 11 -3 12 9 17 10 17 2 0 -7 4 -10 8 -7 5 3 9 -1
10 -9 1 -8 3 -21 4 -29 2 -16 28 -9 28 8 0 6 4 5 9 -4 6 -8 7 -18 4 -24 -4 -5
3 -7 15 -4 16 5 20 2 17 -13 -3 -14 1 -19 13 -17 9 2 16 -3 14 -9 -1 -7 2 -13
8 -13 5 0 10 -5 10 -11 0 -7 -11 -5 -27 5 l-28 17 23 -20 c19 -17 28 -19 44
-10 18 10 20 9 15 -5 -5 -13 -1 -15 21 -11 l27 6 -28 -16 c-16 -9 -26 -19 -23
-22 3 -3 12 0 21 7 9 8 15 8 15 2 0 -6 10 -14 21 -17 17 -6 19 -9 8 -16 -11
-7 -11 -9 -1 -9 7 0 16 8 19 18 6 14 8 13 13 -7 6 -26 47 -38 47 -15 0 7 -5
10 -10 7 -6 -3 -7 -1 -3 5 4 6 13 9 21 6 8 -4 12 -11 8 -17 -4 -6 -1 -7 6 -3
7 5 10 10 7 13 -3 3 0 15 6 27 7 11 11 25 10 29 -1 5 2 6 8 2 7 -5 8 -11 1
-19 -7 -8 -6 -17 1 -26 8 -12 9 -12 4 3 -3 9 -1 17 4 17 6 0 10 11 10 25 0 14
5 25 11 25 5 0 8 -4 4 -9 -6 -11 34 -6 44 5 3 4 -2 4 -12 1 -13 -5 -17 -3 -14
5 2 7 10 12 16 10 7 -1 10 2 6 7 -3 6 -12 8 -20 4 -8 -3 -15 0 -15 6 0 6 3 10
8 10 34 -6 48 28 25 61 -13 19 -13 24 -2 31 8 5 9 9 4 9 -6 0 -17 -6 -24 -13
-7 -6 -12 -7 -11 -2 5 21 0 36 -10 30 -5 -3 -10 -2 -10 4 0 5 3 11 8 14 4 2 1
2 -6 1 -7 -2 -15 3 -18 11 -4 8 -10 12 -15 9 -5 -3 -9 2 -9 10 0 9 -7 16 -16
16 -9 0 -12 5 -8 13 6 10 4 10 -7 0 -17 -17 -37 -17 -21 -1 7 7 12 17 12 23 0
5 -5 3 -10 -5 -6 -10 -10 -11 -10 -2 0 6 -5 12 -11 12 -5 0 -7 -6 -3 -12 5 -9
2 -9 -9 1 -9 7 -17 19 -17 25 0 6 5 4 10 -4 5 -8 10 -10 10 -4 0 6 -8 18 -17
25 -11 10 -14 10 -9 2 4 -7 2 -13 -3 -13 -6 0 -11 5 -11 11 0 5 -6 7 -12 3 -8
-5 -7 0 2 11 9 11 10 16 3 11 -12 -6 -18 4 -14 26 0 4 -6 5 -15 1 -13 -5 -13
-7 -2 -14 9 -6 6 -8 -9 -7 -12 1 -19 7 -16 14 3 7 0 21 -6 31 -8 14 -11 15
-12 3 -1 -8 -1 -19 0 -23 1 -5 -3 -6 -8 -2 -6 3 -8 12 -5 20 4 8 -1 18 -10 21
-11 4 -15 14 -11 28 2 11 2 15 -1 9 -3 -7 -10 -13 -15 -13 -6 0 -8 4 -5 9 5 8
-32 49 -40 44 -12 -8 -24 -1 -18 10 5 7 1 7 -10 -2 -16 -13 -17 -12 -11 15 5
25 4 26 -4 7 -12 -27 -20 -30 -16 -5 4 28 -14 55 -30 42 -9 -8 -14 -6 -19 6
-3 9 -3 20 0 25 3 5 0 8 -8 7 -7 -2 -12 4 -10 12 3 12 1 13 -10 2 -11 -11 -10
-14 2 -22 8 -5 11 -10 7 -10 -5 0 -21 10 -35 22 -15 11 -20 19 -12 16 11 -4
16 0 16 13 0 12 -4 15 -10 9 -6 -6 -17 -10 -25 -9 -11 0 -12 2 -3 6 20 8 14
20 -10 19 -17 -1 -23 4 -22 20 0 11 -5 21 -12 21 -7 0 -10 -5 -7 -11 4 -6 0
-5 -9 2 -8 7 -24 10 -34 6 -14 -4 -15 -3 -6 4 28 20 1 52 -39 47 -26 -3 -28
-2 -18 17 7 12 7 18 1 14 -6 -3 -12 -3 -15 1 -2 5 -2 3 -1 -4 2 -7 0 -15 -5
-17 -4 -3 -8 1 -9 9 -1 8 -3 22 -4 30 -2 18 -14 20 -21 3 -3 -8 -6 -5 -6 5 -1
11 -6 15 -12 11 -8 -4 -9 1 -4 17 7 22 7 23 -10 9 -11 -9 -16 -10 -11 -2 4 6
2 12 -3 12 -6 0 -11 -5 -11 -11 0 -5 -5 -7 -11 -3 -6 3 -7 9 -3 13 13 9 17 74
4 66 -6 -3 -7 1 -4 10 6 14 8 14 21 -2 14 -17 14 -16 10 5 -5 20 -3 21 11 10
12 -10 14 -10 8 0 -4 7 -2 12 4 12 6 0 8 5 5 10 -5 8 13 14 36 12 3 -1 5 10 3
23 -1 14 3 23 9 22 7 -1 11 4 9 11 -1 8 2 11 7 8 5 -4 12 -2 16 4 4 6 11 7 17
4 7 -5 9 -2 6 7 -4 11 2 14 21 13 32 -1 52 6 46 16 -3 4 2 10 10 14 8 3 15 11
15 18 0 9 -3 9 -11 -2 -9 -13 -10 -13 -6 0 2 8 12 15 23 15 13 0 19 7 18 23 0
12 2 20 4 17 3 -3 11 3 19 13 14 16 14 16 9 -1 -3 -11 -2 -16 4 -12 6 3 10 18
10 33 0 15 4 23 8 17 21 -30 37 -7 17 25 -7 12 -6 13 7 3 8 -7 18 -10 21 -7 4
4 4 -4 2 -16 -2 -12 -1 -19 3 -16 4 4 7 13 7 19 1 7 6 11 12 10 6 -1 9 6 6 17
-3 12 0 20 6 20 7 0 9 -5 5 -12 -5 -7 -3 -8 5 -4 7 5 10 15 6 23 -4 13 -3 14
10 3 13 -11 14 -10 10 2 -5 12 0 15 19 13 19 -2 23 1 19 13 -4 10 -2 13 5 8 7
-4 12 -1 12 9 0 10 -5 13 -12 9 -8 -4 -10 -3 -5 2 5 5 13 9 17 9 5 0 15 9 23
19 11 15 16 16 22 6 5 -8 4 -11 -1 -7 -6 3 -15 -3 -22 -14 -8 -12 -9 -19 -1
-19 5 0 7 -5 3 -12 -4 -7 -3 -8 5 -4 6 4 9 12 5 17 -6 11 35 46 49 41 4 -1 6
1 6 5 -4 25 2 43 13 37 7 -5 9 -2 6 8 -5 12 0 14 20 10 l27 -5 -20 19 c-12 10
-16 16 -10 13 5 -3 20 -9 32 -11 15 -4 20 -2 16 8 -3 8 -10 11 -17 7 -9 -5 0
8 33 47 2 3 1 -3 -2 -12 -4 -10 -2 -18 4 -18 6 0 8 -4 4 -9 -3 -5 0 -13 6 -17
7 -4 9 -3 6 3 -4 6 0 16 8 23 11 9 12 17 3 34 l-11 21 23 -20 c13 -11 20 -14
15 -6 -6 11 -4 13 8 8 11 -4 14 -2 10 9 -3 9 0 14 8 12 9 -2 13 6 13 24 -1 15
3 25 8 22 4 -3 6 -9 3 -14 -3 -5 -1 -12 5 -15 6 -4 10 -3 9 2 -2 16 13 53 23
53 5 0 6 -5 2 -12 -4 -7 -3 -8 5 -4 9 6 9 11 1 21 -9 11 -6 13 14 11 14 -2 23
0 21 5 -3 4 -2 9 2 12 5 2 1 2 -7 0 -8 -2 -11 -1 -7 3 4 4 2 12 -3 19 -7 8 -5
12 5 12 8 0 11 -5 8 -10 -3 -6 -1 -7 5 -3 17 10 15 26 -4 26 -8 0 -12 5 -9 10
4 6 11 7 17 4 5 -4 4 4 -2 17 -17 32 -17 32 -24 14 -3 -9 -2 -13 4 -10 6 3 10
1 10 -4 0 -6 -7 -11 -16 -11 -11 0 -14 6 -8 23 15 49 16 52 4 35 -6 -10 -19
-18 -28 -17 -14 0 -13 2 3 9 14 6 16 9 5 10 -8 2 -19 2 -23 1 -5 -1 -6 3 -2 8
3 6 13 8 23 5 14 -5 14 -4 3 4 -8 6 -20 8 -28 5 -7 -3 -13 0 -13 7 0 8 -8 10
-21 7 -17 -5 -18 -3 -7 11 10 12 10 14 1 8 -8 -4 -13 -2 -13 5 0 8 -4 8 -15
-1 -19 -16 -20 -6 0 13 13 13 13 16 0 21 -8 3 -14 2 -14 -2z m-131 -122 c0 -5
-2 -10 -4 -10 -3 0 -8 5 -11 10 -3 6 -1 10 4 10 6 0 11 -4 11 -10z m-91 -73
c-7 -7 -22 -14 -33 -14 -19 -2 -18 0 4 12 32 18 44 19 29 2z m275 -113 c3 -8
2 -12 -4 -9 -6 3 -10 10 -10 16 0 14 7 11 14 -7z m-24 -14 c0 -5 -5 -10 -11
-10 -5 0 -7 5 -4 10 3 6 8 10 11 10 2 0 4 -4 4 -10z m-435 -30 c3 -6 -1 -7 -9
-4 -18 7 -21 14 -7 14 6 0 13 -4 16 -10z m400 -9 c3 -5 2 -12 -3 -15 -5 -3 -9
1 -9 9 0 17 3 19 12 6z m-145 -116 c-7 -9 -15 -13 -17 -11 -6 6 20 36 26 30 2
-2 -2 -10 -9 -19z m-103 -70 c0 -8 -4 -12 -9 -9 -5 3 -6 10 -3 15 9 13 12 11
12 -6z m-77 -55 c0 -5 -5 -10 -11 -10 -5 0 -7 5 -4 10 3 6 8 10 11 10 2 0 4
-4 4 -10z m-500 -90 c0 -5 -5 -10 -11 -10 -5 0 -7 5 -4 10 3 6 8 10 11 10 2 0
4 -4 4 -10z m0 -24 c0 -3 -4 -8 -10 -11 -5 -3 -10 -1 -10 4 0 6 5 11 10 11 6
0 10 -2 10 -4z m380 -6 c0 -5 -2 -10 -4 -10 -3 0 -8 5 -11 10 -3 6 -1 10 4 10
6 0 11 -4 11 -10z m-414 -9 c-4 -5 -3 -11 1 -14 5 -2 3 -2 -4 -1 -7 2 -15 -1
-18 -6 -4 -6 -11 -10 -17 -10 -5 0 0 9 13 20 27 22 33 24 25 11z m349 -42 c11
-16 1 -19 -13 -3 -7 8 -8 14 -3 14 5 0 13 -5 16 -11z m-439 -51 c4 -6 3 -8 -4
-4 -6 3 -18 -1 -26 -10 -9 -8 -16 -11 -16 -5 0 5 8 15 18 20 21 13 20 13 28
-1z m-56 -29 c0 -5 -4 -7 -10 -4 -9 6 -14 -8 -11 -27 0 -5 -3 -8 -9 -8 -13 0
-13 6 0 31 11 20 30 26 30 8z m465 -278 c3 -5 0 -13 -6 -17 -7 -4 -9 -3 -5 4
3 5 0 13 -6 15 -9 4 -10 6 -1 6 6 1 14 -3 18 -8z m229 -186 c3 -8 1 -15 -4
-15 -6 0 -10 7 -10 15 0 8 2 15 4 15 2 0 6 -7 10 -15z m102 -93 c-9 -9 -37 8
-31 18 5 8 11 7 21 -1 8 -6 12 -14 10 -17z m-241 -152 c3 -5 1 -10 -4 -10 -6
0 -11 5 -11 10 0 6 2 10 4 10 3 0 8 -4 11 -10z m400 -328 c-3 -3 -11 0 -18 7
-9 10 -8 11 6 5 10 -3 15 -9 12 -12z"/>
<path d="M4130 3582 c0 -8 -11 -10 -32 -7 -21 3 -28 2 -20 -3 11 -8 11 -10 -2
-15 -9 -4 -19 1 -24 10 -8 14 -10 13 -15 -1 -4 -10 -3 -15 2 -12 5 3 11 -3 14
-14 4 -17 2 -18 -15 -9 -18 10 -20 9 -15 -5 4 -10 3 -14 -2 -11 -5 3 -22 -6
-37 -20 -15 -14 -31 -25 -35 -25 -5 0 -11 -11 -15 -25 -3 -14 -10 -25 -14 -25
-4 0 -7 -18 -6 -39 1 -37 2 -39 31 -35 22 3 26 1 15 -6 -13 -9 -13 -10 0 -10
13 0 13 -1 0 -10 -8 -5 -10 -10 -4 -10 5 0 15 5 22 12 15 15 15 3 1 -25 -12
-21 -11 -21 8 -4 11 9 24 17 29 17 5 0 2 -5 -6 -10 -13 -9 -13 -10 0 -11 8 -1
18 -1 22 0 5 0 7 -2 7 -7 -3 -18 2 -32 12 -32 5 0 8 4 4 9 -3 5 -1 12 4 15 11
7 9 -13 -3 -34 -5 -8 -6 -12 -2 -8 5 4 22 -8 38 -25 22 -23 27 -26 19 -9 -7
12 -17 22 -23 22 -6 0 -8 3 -5 7 9 8 47 -27 47 -44 0 -7 9 -13 20 -13 11 0 20
-4 20 -10 0 -5 -8 -7 -17 -4 -14 5 -15 4 -4 -4 8 -6 20 -8 28 -5 7 3 20 0 27
-6 11 -9 15 -9 19 1 2 7 4 1 4 -14 1 -38 20 -60 42 -48 9 5 23 5 30 1 11 -7
11 -9 0 -13 -10 -4 -3 -15 21 -39 19 -19 34 -37 33 -40 -1 -3 4 -6 12 -6 20 0
7 23 -21 35 -13 7 -23 19 -23 29 1 15 2 15 6 2 2 -9 15 -21 28 -27 14 -7 25
-16 25 -22 0 -6 4 -9 9 -5 5 3 13 0 17 -6 4 -7 3 -9 -3 -6 -6 4 -13 -2 -16
-14 -4 -16 -3 -18 8 -9 10 9 15 6 20 -10 4 -12 11 -17 18 -13 27 17 41 11 18
-8 l-24 -20 26 5 c21 4 25 1 20 -12 -6 -15 -5 -15 10 -3 20 16 23 2 5 -18 -8
-8 -8 -11 -2 -8 14 8 37 -17 26 -29 -4 -4 1 -2 10 5 10 7 16 17 13 21 -3 5 -1
11 4 14 6 4 8 -7 6 -24 -4 -30 8 -40 21 -18 5 7 3 8 -6 3 -9 -5 -11 -4 -6 4 6
8 12 9 20 2 7 -6 16 -8 20 -4 4 4 4 0 1 -9 -7 -17 22 -67 39 -68 5 0 2 8 -7
18 -20 21 -22 32 -6 32 5 0 8 -4 5 -9 -3 -5 1 -14 9 -21 8 -7 15 -18 15 -26 0
-7 9 -16 20 -19 11 -4 18 -10 15 -15 -7 -11 22 -33 48 -37 17 -2 19 -1 7 6 -8
5 -18 7 -24 4 -5 -4 -6 -1 -2 6 6 9 13 9 29 -3 12 -8 21 -19 20 -25 -2 -6 4
-11 12 -11 8 0 15 -9 15 -19 0 -11 5 -23 12 -27 7 -4 8 -3 4 4 -5 8 -1 10 10
5 14 -5 13 -8 -7 -24 -13 -9 -28 -15 -33 -12 -5 3 -6 1 -3 -5 9 -13 -2 -42
-15 -42 -5 0 -6 5 -2 12 4 7 3 8 -5 4 -9 -6 -9 -11 1 -24 10 -12 10 -14 1 -8
-8 4 -13 2 -13 -7 0 -13 -12 -17 -55 -18 -16 0 -17 -2 -5 -9 8 -5 17 -7 21 -4
4 2 10 0 14 -5 3 -6 -4 -8 -16 -6 -14 3 -19 0 -16 -9 9 -22 -5 -27 -19 -8 -12
15 -13 15 -9 -5 4 -24 -27 -49 -46 -37 -6 3 -13 -4 -16 -16 -4 -17 -8 -19 -15
-8 -7 9 -8 4 -5 -17 5 -27 4 -28 -9 -10 -12 16 -14 16 -14 2 0 -9 -9 -21 -20
-27 -11 -6 -18 -16 -14 -21 4 -6 -4 -5 -17 2 -23 12 -23 11 -9 -6 14 -17 14
-17 -7 -7 -16 9 -24 9 -29 0 -4 -7 -3 -8 4 -4 7 4 12 2 12 -3 0 -6 -7 -11 -15
-11 -8 0 -15 -5 -15 -11 0 -5 6 -7 13 -3 7 5 7 1 -3 -12 -8 -10 -15 -20 -16
-22 -1 -2 -4 4 -8 13 -4 11 -2 14 6 9 7 -4 8 -3 4 4 -10 16 -11 16 -32 -15
-17 -27 -17 -28 2 -14 17 14 18 14 4 -1 -8 -10 -28 -19 -44 -22 -16 -3 -31 -8
-35 -12 -3 -4 2 -4 12 -1 13 5 17 3 14 -5 -2 -7 -10 -12 -17 -10 -7 2 -10 -3
-7 -12 4 -9 1 -18 -5 -22 -6 -4 -8 -3 -4 4 3 6 2 13 -4 17 -5 3 -10 -1 -10 -9
0 -9 -4 -16 -10 -16 -5 0 -7 -8 -3 -17 4 -12 -1 -10 -14 6 -15 19 -22 21 -28
11 -5 -8 -4 -11 2 -7 15 9 23 -17 11 -34 -8 -11 -9 -11 -5 3 5 14 -8 17 -33 8
-3 -1 -9 -2 -13 -1 -4 1 0 -11 10 -26 17 -28 17 -28 -3 -10 -20 16 -22 16 -38
-2 -10 -11 -19 -31 -20 -44 0 -14 -4 -23 -8 -20 -5 2 -8 -1 -8 -6 0 -6 -5 -11
-11 -11 -5 0 -7 5 -4 10 11 17 -6 11 -36 -14 -15 -13 -25 -27 -22 -30 4 -3 1
-6 -6 -6 -7 0 -10 -4 -7 -8 3 -5 -9 -17 -27 -27 -28 -16 -30 -16 -18 -2 7 9 9
17 3 17 -16 0 -22 -26 -9 -40 9 -10 9 -11 0 -6 -6 3 -14 2 -18 -4 -4 -6 -11
-8 -16 -5 -5 4 -9 -1 -9 -10 0 -9 -6 -15 -12 -12 -7 2 -11 11 -10 18 2 8 0 10
-4 6 -5 -4 -10 -27 -11 -50 -2 -31 0 -38 8 -27 8 12 9 10 4 -8 -4 -15 -1 -24
9 -28 9 -3 16 -10 16 -16 0 -15 -20 2 -41 36 -14 22 -19 25 -17 11 2 -11 11
-26 21 -33 9 -7 14 -18 11 -24 -4 -7 -2 -8 5 -4 6 4 14 1 17 -8 3 -8 14 -13
25 -11 23 5 35 -13 20 -28 -9 -9 -11 -7 -6 8 5 16 5 17 -3 5 -12 -16 -6 -33 8
-25 5 3 14 -3 20 -12 11 -17 11 -17 6 0 -3 9 -1 17 4 17 8 0 14 -18 12 -40 0
-3 9 -5 21 -6 12 0 29 -2 37 -5 9 -2 14 2 12 10 -2 9 4 12 17 8 14 -3 18 -1
14 9 -3 8 2 15 11 15 30 3 34 4 43 13 4 5 3 6 -4 2 -8 -4 -11 1 -10 13 1 16 4
18 16 8 12 -10 13 -9 6 2 -6 11 -4 13 10 7 16 -6 16 -4 4 11 -7 10 -9 15 -5
11 5 -4 15 0 23 10 8 9 11 11 7 3 -5 -10 -3 -12 5 -7 7 5 10 14 7 22 -3 8 0
11 10 7 12 -4 19 7 15 29 0 4 7 4 16 1 10 -4 14 -2 9 5 -9 15 7 23 24 10 12
-8 12 -9 -2 -4 -12 3 -15 1 -11 -10 5 -13 8 -13 24 2 20 18 25 29 9 19 -6 -3
-9 4 -8 19 1 13 6 22 10 20 5 -3 6 -9 3 -14 -3 -4 2 -10 10 -14 8 -3 17 0 21
6 4 7 3 8 -4 4 -7 -4 -12 -1 -12 9 0 13 4 14 21 5 19 -10 20 -10 10 8 -8 16
-7 21 5 26 8 3 13 2 10 -2 -2 -4 0 -14 6 -22 8 -12 9 -12 4 3 -3 10 0 17 7 17
7 0 3 8 -8 16 -20 16 -19 16 4 9 16 -5 21 -4 17 4 -9 14 0 14 27 0 l22 -12
-20 23 c-11 13 -14 20 -7 16 6 -4 12 -3 12 3 0 5 8 8 19 6 14 -2 17 2 15 21
-1 13 2 22 7 18 5 -3 9 0 9 6 0 6 4 9 9 6 5 -3 12 1 15 10 4 11 13 14 28 11
16 -4 18 -3 9 6 -6 6 -11 18 -11 26 0 12 3 11 13 -3 11 -16 15 -16 25 -3 7 8
11 21 10 28 -2 7 2 13 7 14 6 0 21 7 35 14 22 11 21 9 -5 -13 -16 -14 -26 -25
-22 -26 4 0 20 11 34 24 15 14 31 22 36 19 6 -3 7 -1 3 6 -4 6 -11 9 -15 7 -4
-3 -13 0 -21 5 -11 7 -7 8 12 5 27 -5 40 5 44 32 3 20 11 25 19 13 3 -6 1 -11
-5 -11 -6 0 -8 -5 -4 -11 4 -7 13 0 25 17 10 15 16 31 13 36 -3 4 2 8 10 8 9
0 15 3 13 8 -1 4 1 8 6 9 21 7 48 43 42 55 -6 10 -5 10 5 1 11 -10 11 -16 -3
-31 -9 -10 -17 -23 -17 -28 0 -5 5 -2 10 6 5 8 15 15 22 15 8 0 12 9 10 23 -3
17 0 21 15 15 16 -6 17 -5 3 12 -14 17 -14 18 6 7 20 -10 21 -9 19 18 -1 16 1
27 6 24 5 -3 7 -10 4 -15 -4 -5 -1 -9 5 -9 6 0 8 -5 4 -12 -5 -7 -3 -8 5 -4 7
5 10 10 8 12 -6 7 52 64 64 64 6 0 7 5 3 11 -5 8 1 10 19 7 23 -4 25 -3 16 13
-8 15 -6 19 6 19 10 0 14 -5 10 -12 -4 -7 3 -2 15 11 19 22 21 35 19 169 0 80
-4 140 -8 134 -4 -6 -16 -10 -27 -10 -15 2 -20 7 -16 20 2 10 -1 18 -7 18 -7
0 -10 4 -6 9 3 6 -6 8 -20 5 -19 -3 -23 -1 -18 12 5 14 3 15 -17 4 -12 -7 -20
-7 -16 -2 3 6 3 12 -1 15 -5 2 -3 2 4 1 7 -2 10 3 6 11 -4 12 -9 12 -26 3 -21
-11 -21 -10 -7 7 8 10 10 16 5 13 -16 -10 -36 6 -38 30 0 11 -5 18 -9 16 -5
-3 -5 -10 -2 -16 4 -5 -4 -4 -17 2 -13 7 -28 19 -32 27 -5 7 -12 11 -17 8 -4
-3 -7 6 -6 19 2 18 -1 22 -16 18 -12 -3 -18 1 -18 12 0 14 -19 21 -44 17 -5
-1 -1 11 9 26 12 18 13 24 4 17 -20 -16 -51 -26 -44 -14 5 8 -27 32 -36 27 -3
-1 -1 2 3 8 13 15 9 28 -7 22 -8 -4 -17 -1 -21 5 -4 7 -3 8 4 4 7 -4 12 -2 12
3 0 6 -9 11 -20 11 -11 0 -20 4 -20 10 0 5 6 8 13 6 6 -1 9 -1 4 1 -4 3 -4 10
-1 16 5 8 2 8 -7 0 -17 -17 -29 -16 -29 1 0 22 -19 29 -38 15 -12 -10 -11 -7
3 9 14 17 16 23 5 20 -9 -2 -14 4 -14 14 1 10 -2 15 -8 12 -5 -3 -6 -15 -3
-27 6 -21 5 -21 -8 1 -7 12 -15 21 -18 20 -2 -2 3 3 11 11 13 11 12 12 -8 6
-15 -4 -24 -2 -28 9 -3 9 -13 16 -21 16 -12 0 -13 3 -4 14 9 11 9 16 0 22 -8
4 -9 3 -5 -4 4 -7 1 -12 -8 -12 -9 0 -16 5 -16 10 0 6 -5 10 -11 10 -5 0 -7
-5 -3 -12 4 -7 3 -8 -5 -4 -9 6 -9 11 1 24 11 14 10 15 -6 9 -15 -6 -16 -5 -8
6 8 10 6 13 -9 14 -11 1 -17 -2 -14 -7 4 -6 -2 -7 -11 -3 -11 4 -13 8 -6 11
16 5 15 23 0 21 -27 -3 -39 1 -32 12 4 8 9 7 15 -2 6 -10 8 -7 6 8 0 12 -4 20
-8 17 -4 -2 -11 1 -14 6 -5 8 -13 6 -25 -5 -14 -12 -20 -13 -26 -4 -4 7 -3 10
3 6 20 -13 21 20 1 37 -19 17 -20 16 -13 -6 6 -22 5 -22 -9 2 -8 14 -12 29 -9
34 4 5 1 6 -5 2 -11 -7 -17 6 -13 27 1 5 -3 5 -9 2 -8 -5 -6 -14 4 -30 9 -14
12 -26 7 -30 -5 -3 -12 -1 -16 5 -3 5 -4 10 0 10 3 0 1 9 -5 20 -6 11 -16 17
-22 14 -7 -5 -8 -2 -3 6 6 10 4 12 -8 7 -9 -3 -19 -1 -23 5 -4 6 -3 8 3 5 11
-7 28 22 18 31 -3 3 -5 0 -5 -6 0 -7 -5 -12 -11 -12 -5 0 -7 5 -4 10 6 10 -7
14 -34 10 -9 -1 -12 5 -8 19 5 19 4 19 -22 3 l-26 -16 19 22 c11 12 16 25 13
29 -4 3 -7 1 -7 -5z m-166 -127 c-4 -8 -11 -15 -16 -15 -6 0 -5 6 2 15 7 8 14
15 16 15 2 0 1 -7 -2 -15z m-4 -52 c0 -1 -8 -7 -18 -12 -13 -7 -19 -6 -19 2 0
7 9 13 19 13 10 0 18 -1 18 -3z m405 -23 c3 -5 1 -10 -4 -10 -6 0 -11 5 -11
10 0 6 2 10 4 10 3 0 8 -4 11 -10z m-198 -196 c-3 -3 -12 -4 -19 -1 -8 3 -5 6
6 6 11 1 17 -2 13 -5z m446 -39 c-3 -9 -8 -14 -10 -11 -3 3 -2 9 2 15 9 16 15
13 8 -4z m-351 -49 c7 4 8 2 4 -5 -9 -13 -26 -5 -25 12 0 9 2 8 6 -1 2 -6 10
-9 15 -6z m264 -216 c0 -12 -4 -16 -9 -11 -5 5 -6 14 -3 20 10 15 12 14 12 -9z
m529 -108 c-3 -3 -11 0 -18 7 -9 10 -8 11 6 5 10 -3 15 -9 12 -12z m-346 -48
c2 -11 -1 -15 -5 -11 -5 5 -9 13 -9 17 0 5 -9 17 -20 26 -19 15 -19 15 5 1 14
-8 27 -23 29 -33z m89 -149 c-6 -14 -13 -23 -15 -21 -5 5 15 46 22 46 3 0 -1
-11 -7 -25z m197 -174 c3 -6 -5 -15 -17 -21 -21 -10 -21 -10 -6 3 10 8 15 17
11 20 -3 4 -4 7 0 7 3 0 8 -4 12 -9z m-265 -221 c0 -5 -4 -10 -10 -10 -5 0
-10 5 -10 10 0 6 5 10 10 10 6 0 10 -4 10 -10z m-480 -60 c0 -5 -5 -10 -11
-10 -5 0 -7 5 -4 10 3 6 8 10 11 10 2 0 4 -4 4 -10z m-36 -36 c3 -8 2 -12 -3
-9 -6 3 -14 -3 -20 -12 -14 -23 -14 -7 -1 18 13 23 16 24 24 3z m411 7 c3 -5
2 -12 -3 -15 -5 -3 -9 1 -9 9 0 17 3 19 12 6z m-515 -102 c-7 -11 -14 -18 -17
-15 -3 3 0 12 7 21 18 21 23 19 10 -6z m5 -309 c-3 -5 -12 -10 -18 -10 -7 0
-6 4 3 10 19 12 23 12 15 0z"/>
<path d="M3267 3523 c-11 -11 -17 -13 -17 -5 0 7 -5 12 -12 12 -9 0 -9 -3 0
-12 19 -19 69 -19 84 0 12 15 11 16 -4 4 -18 -14 -43 -7 -33 9 9 14 1 11 -18
-8z"/>
<path d="M1783 3514 c-17 -18 -16 -23 5 -19 22 3 34 -4 26 -16 -3 -6 -12 -5
-22 3 -14 11 -15 10 -9 -7 7 -18 5 -18 -10 2 -13 16 -22 20 -33 13 -13 -8 -13
-11 -1 -22 9 -8 11 -9 7 -1 -3 6 -2 14 3 17 5 4 8 -2 6 -11 -1 -10 -10 -17
-19 -17 -12 1 -15 -5 -12 -22 3 -13 0 -24 -6 -24 -5 0 -8 6 -5 14 4 9 0 13
-11 11 -9 -1 -16 -8 -14 -14 3 -15 -15 -14 -20 1 -3 8 -6 9 -11 1 -3 -5 5 -15
19 -22 20 -9 24 -9 18 1 -4 7 2 4 14 -6 23 -20 31 -36 9 -18 -8 7 -18 7 -27 2
-12 -8 -12 -10 4 -10 11 0 16 -5 13 -14 -7 -19 12 -36 32 -28 14 5 14 4 2 -12
-8 -9 -10 -16 -5 -15 21 4 28 -2 14 -11 -11 -7 -6 -8 17 -6 21 3 32 0 30 -7
-1 -7 3 -11 10 -10 7 2 10 -4 7 -12 -4 -8 -10 -15 -16 -15 -5 0 -7 4 -3 9 3 5
1 12 -4 15 -5 4 -12 2 -15 -3 -7 -10 48 -54 56 -46 3 3 5 -2 5 -10 0 -8 -4
-12 -8 -9 -4 2 -11 0 -14 -6 -4 -6 -1 -9 7 -8 8 2 13 -6 12 -19 -1 -13 3 -20
7 -17 5 3 7 10 4 15 -4 5 -2 9 4 9 5 0 13 -9 16 -20 4 -11 11 -17 17 -14 8 5
9 1 5 -10 -6 -14 -3 -16 16 -11 21 7 21 6 3 -7 -17 -14 -17 -15 -2 -21 9 -4
15 -3 12 1 -2 4 4 8 14 8 14 0 16 -3 8 -13 -7 -9 -7 -13 1 -13 6 0 11 -4 11
-9 0 -5 -10 -7 -22 -5 -13 2 -17 1 -9 -2 7 -4 22 -15 33 -26 17 -17 22 -18 30
-7 8 11 9 11 5 -2 -3 -8 3 -21 13 -27 11 -7 17 -20 15 -31 -2 -11 3 -25 11
-31 7 -7 11 -17 7 -24 -5 -8 -3 -8 8 1 11 9 19 7 38 -8 13 -10 20 -19 16 -19
-4 0 -2 -6 4 -13 14 -17 4 -28 -17 -20 -10 4 -14 2 -9 -2 4 -5 17 -9 30 -10
16 -1 21 -7 19 -23 -2 -15 2 -22 12 -22 9 0 16 -4 16 -10 0 -5 -8 -7 -17 -3
-19 7 -18 5 11 -17 11 -8 17 -10 13 -3 -4 6 -3 14 2 17 5 4 8 -5 7 -19 -2 -15
1 -22 7 -18 6 4 8 0 4 -10 -3 -8 0 -21 8 -27 12 -10 13 -8 10 9 -5 29 0 26 25
-14 12 -19 24 -34 28 -32 4 1 8 -2 10 -8 2 -5 10 -20 18 -33 9 -13 13 -30 10
-37 -3 -8 -1 -17 3 -20 16 -9 -12 -53 -32 -49 -16 3 -17 1 -5 -13 10 -14 10
-15 0 -9 -9 5 -15 1 -19 -13 -3 -11 -9 -18 -14 -15 -5 3 -6 10 -3 16 4 7 2 8
-4 4 -6 -4 -9 -13 -6 -20 3 -7 -2 -19 -11 -26 -12 -10 -15 -10 -15 0 0 8 -2
11 -5 8 -3 -3 -3 -13 1 -22 6 -15 8 -15 21 4 8 11 20 20 26 19 9 0 8 -2 -1 -6
-6 -2 -9 -10 -6 -15 5 -7 2 -8 -6 -3 -10 6 -12 4 -7 -8 4 -10 2 -16 -6 -14 -7
1 -11 -4 -9 -12 3 -12 1 -12 -14 0 -16 13 -16 12 -6 -8 15 -27 15 -43 1 -23
-8 11 -12 12 -16 2 -2 -6 -10 -9 -16 -5 -7 4 -7 1 1 -9 10 -13 10 -18 1 -24
-8 -4 -9 -3 -5 4 4 7 2 12 -5 12 -6 0 -9 -8 -6 -20 3 -11 0 -23 -5 -27 -7 -3
-8 -1 -4 5 4 7 2 12 -4 12 -6 0 -8 6 -4 13 4 7 3 9 -2 4 -5 -5 -9 -14 -9 -20
-1 -7 -7 -11 -14 -9 -7 1 -10 -2 -6 -8 3 -6 10 -8 14 -6 4 3 8 -1 8 -9 0 -11
-5 -12 -21 -3 -18 10 -19 9 -9 -3 8 -10 9 -19 1 -29 -8 -13 -9 -12 -4 2 3 12
1 15 -9 12 -8 -3 -11 -13 -8 -21 4 -10 2 -14 -4 -10 -5 3 -10 0 -10 -8 0 -8 4
-12 9 -9 4 3 8 0 8 -5 0 -6 -9 -11 -19 -11 -15 0 -18 -5 -14 -22 5 -23 5 -23
-11 -3 -13 16 -15 17 -10 3 7 -20 -11 -25 -20 -5 -4 8 -5 7 -5 -3 2 -30 -1
-41 -11 -35 -5 3 -10 -1 -10 -9 0 -18 -16 -21 -23 -6 -3 6 -4 5 -3 -2 1 -6
-12 -25 -30 -40 -25 -22 -32 -35 -29 -56 2 -15 2 -21 -1 -14 -10 22 -26 13
-19 -10 7 -22 6 -22 -7 -4 -14 18 -15 18 -14 -5 1 -14 -4 -23 -11 -22 -8 2
-10 -4 -6 -14 5 -11 3 -14 -6 -8 -11 6 -11 3 0 -16 12 -23 11 -23 -6 -9 -11 9
-16 10 -11 3 4 -8 2 -13 -4 -13 -6 0 -8 -5 -5 -10 4 -6 12 -7 18 -4 9 5 9 3 0
-6 -10 -11 -15 -11 -28 0 -13 11 -14 10 -9 -5 5 -12 4 -16 -3 -12 -12 8 -39
-20 -29 -30 3 -3 6 -1 6 5 0 6 9 10 19 9 11 0 17 -5 15 -9 -3 -5 -10 -5 -16
-2 -7 5 -9 1 -5 -9 4 -11 2 -14 -9 -10 -10 4 -17 -2 -21 -16 -3 -12 -10 -18
-17 -14 -6 3 -8 2 -3 -2 4 -5 1 -15 -7 -24 -8 -9 -16 -20 -18 -26 -2 -5 -6 -9
-9 -8 -3 1 -6 -4 -6 -12 0 -8 4 -12 8 -9 4 2 10 -2 13 -8 3 -9 9 -8 20 6 15
18 15 17 11 -13 -2 -18 0 -29 6 -25 5 3 6 10 3 16 -4 6 -2 8 4 4 5 -3 12 -1
14 6 3 7 7 5 11 -6 4 -10 3 -15 -3 -11 -6 3 -10 0 -10 -9 0 -8 -3 -16 -7 -19
-5 -2 -3 -3 2 -1 6 1 19 -4 30 -12 23 -17 39 -18 29 -3 -5 8 -1 8 14 0 25 -13
35 -14 28 -3 -3 5 5 8 17 7 12 -2 21 -8 19 -15 -2 -10 1 -10 14 1 10 8 15 9
12 4 -4 -6 -2 -17 4 -25 8 -12 9 -11 4 4 -5 14 -2 17 10 12 14 -5 15 -4 4 9
-11 13 -10 14 4 9 9 -3 16 -16 17 -28 0 -20 1 -20 8 -1 5 12 4 26 -3 35 -9 12
-8 13 4 4 21 -15 62 -16 53 -1 -4 7 1 6 11 -2 15 -13 19 -13 27 0 7 11 9 11 9
0 0 -11 3 -11 18 0 15 13 16 12 3 -4 -8 -9 -16 -15 -19 -12 -3 3 -11 0 -19 -6
-10 -9 -13 -8 -13 1 0 10 -3 10 -15 0 -8 -7 -15 -18 -15 -24 0 -6 5 -4 10 4 8
12 12 13 19 2 7 -11 9 -10 15 3 3 9 10 13 16 10 6 -4 7 -11 4 -17 -4 -7 -2 -8
5 -4 6 4 9 11 6 15 -2 5 6 9 20 9 16 0 22 -5 18 -12 -4 -6 1 -5 10 3 17 14 24
26 9 17 -5 -3 -9 1 -9 8 0 11 5 12 21 3 12 -7 24 -16 27 -20 3 -5 9 -2 12 7 4
9 14 13 27 11 11 -2 20 1 20 7 0 5 -7 8 -14 5 -10 -4 -13 -1 -9 8 3 8 9 12 14
9 8 -5 13 9 11 27 -1 4 8 4 20 1 16 -4 19 -2 13 9 -8 12 -6 12 9 0 15 -12 17
-12 14 0 -2 8 -7 18 -13 22 -6 5 2 7 18 4 27 -4 27 -4 10 15 -16 18 -16 19 2
12 14 -6 17 -4 12 9 -4 12 3 24 24 39 22 16 29 29 26 44 -3 16 0 21 10 17 7
-3 11 -9 8 -13 -3 -5 -2 -11 2 -13 5 -3 9 10 10 29 1 23 -2 32 -9 28 -6 -4 -8
-3 -5 3 4 6 18 9 32 8 29 -4 30 -2 10 18 -13 13 -13 16 0 21 8 3 17 0 21 -6 5
-7 2 -8 -6 -3 -9 5 -11 4 -6 -3 9 -15 11 -15 27 5 8 9 9 14 3 10 -7 -4 -14 2
-17 13 -4 17 -3 18 16 8 21 -11 21 -10 7 7 -14 17 -13 18 2 12 12 -4 15 -2 11
9 -3 7 0 14 7 14 8 0 10 8 7 21 -5 19 -4 20 12 5 15 -14 17 -14 18 5 1 12 -3
17 -9 13 -7 -5 -8 -2 -3 5 4 7 15 11 25 8 13 -3 17 0 13 9 -3 8 -10 11 -16 7
-6 -3 -7 -1 -3 6 4 6 12 8 18 5 8 -5 9 -1 4 11 -5 15 -4 16 9 5 14 -11 19 -7
16 13 0 4 3 7 9 7 5 0 7 7 4 15 -5 11 -2 13 12 8 12 -4 15 -3 10 5 -4 7 -2 12
3 12 6 0 11 -5 11 -11 0 -6 7 -9 15 -5 8 3 14 0 12 -7 -1 -7 7 -11 18 -9 12 2
16 0 9 -5 -6 -4 -14 -17 -17 -27 -6 -16 -5 -17 7 -7 12 10 16 8 21 -9 5 -15
13 -20 26 -17 10 3 18 2 17 -2 -5 -15 24 -51 35 -44 7 4 7 0 -2 -10 -11 -14
-11 -21 3 -42 9 -14 12 -25 6 -25 -5 0 -10 -5 -10 -12 0 -6 9 -3 21 8 11 10
20 14 19 9 -5 -24 1 -34 18 -28 14 5 14 3 -3 -11 -18 -16 -18 -17 -2 -12 15 5
17 2 12 -14 -5 -16 -2 -20 14 -20 12 0 21 -6 21 -16 0 -8 4 -13 8 -10 5 3 9
-2 9 -11 0 -13 -4 -11 -18 6 -17 21 -18 21 -16 2 0 -11 6 -19 12 -18 5 1 9 -3
8 -10 -2 -8 4 -10 14 -6 11 4 14 3 9 -5 -4 -7 -2 -12 6 -12 9 0 9 -3 -2 -10
-8 -5 -10 -10 -5 -10 6 0 17 6 24 13 9 7 11 7 8 1 -4 -7 0 -14 8 -18 8 -3 15
-17 15 -31 0 -15 4 -24 10 -20 6 4 7 12 4 18 -4 7 2 4 12 -6 17 -15 17 -19 4
-28 -11 -8 -6 -9 20 -6 19 3 29 3 23 0 -18 -7 -16 -26 2 -20 8 4 17 2 20 -4 4
-5 11 -7 16 -3 5 3 9 2 8 -3 -4 -22 3 -33 21 -33 11 0 20 -5 20 -11 0 -5 4 -8
10 -4 5 3 6 13 3 22 -6 15 -5 16 9 3 9 -8 13 -19 10 -25 -4 -5 -7 -16 -8 -23
-2 -10 1 -10 12 -1 7 6 12 15 9 19 -3 4 6 8 19 8 14 -1 23 -6 22 -12 -2 -6 -1
-7 2 -3 2 4 11 2 20 -5 15 -11 15 -11 5 3 -7 9 -9 20 -5 24 4 5 1 5 -7 0 -9
-5 -12 -4 -7 3 4 6 13 9 21 5 8 -3 15 1 15 8 0 7 3 9 6 6 4 -4 1 -13 -6 -22
-7 -8 -8 -15 -2 -15 15 0 33 26 24 35 -4 5 -1 5 6 1 9 -5 9 -13 2 -26 -7 -13
-7 -21 2 -26 6 -4 8 -3 5 3 -8 12 17 36 26 26 4 -3 7 0 7 7 0 11 3 11 12 2 9
-9 16 -8 32 6 11 9 16 12 13 5 -9 -15 34 -14 46 2 5 6 7 3 3 -7 -3 -10 -1 -18
4 -18 6 0 9 -5 8 -11 -2 -6 4 -14 12 -16 12 -4 12 -3 2 5 -11 8 -11 10 2 15 8
3 17 1 20 -6 3 -9 5 -8 5 1 1 8 6 10 14 6 6 -4 9 -4 5 1 -11 11 11 47 24 39 6
-4 8 -3 4 4 -8 13 33 44 47 35 6 -3 7 -1 3 5 -4 7 -2 12 5 12 7 0 5 8 -6 20
-12 13 -26 18 -39 15 -12 -3 -15 -2 -8 1 6 3 10 10 6 15 -3 5 -2 8 3 7 7 -3
13 5 13 17 0 3 -9 1 -19 -5 -14 -7 -22 -7 -27 2 -4 6 -3 8 3 5 6 -4 13 -1 16
6 3 8 -3 14 -14 14 -10 1 -19 -3 -19 -9 0 -6 -3 -8 -6 -5 -4 4 -1 13 6 22 12
15 4 20 -22 16 -5 0 -8 4 -8 10 0 5 -5 7 -12 3 -7 -5 -8 -3 -4 5 5 7 0 21 -11
33 -10 12 -12 18 -5 14 6 -4 12 -3 12 2 0 5 -9 12 -21 15 -18 5 -19 8 -9 27 7
13 8 20 2 16 -13 -8 -44 22 -36 35 3 5 1 8 -4 7 -5 -2 -23 7 -40 19 -25 18
-29 28 -26 52 5 30 -9 50 -22 30 -4 -8 -3 -9 4 -5 7 4 12 1 12 -8 0 -22 -13
-20 -28 5 -8 12 -9 18 -3 14 6 -3 11 -2 11 4 0 5 -9 12 -19 16 -12 4 -18 12
-14 21 6 16 -13 44 -31 44 -6 0 -3 -7 7 -14 9 -7 17 -17 17 -21 0 -5 -9 0 -20
10 -11 10 -16 23 -13 29 14 21 11 34 -7 31 -10 -2 -26 3 -37 11 -10 9 -12 13
-3 9 8 -4 6 1 -5 10 -11 9 -19 21 -17 26 2 8 -20 13 -40 10 -5 0 -8 4 -8 10 0
6 7 9 15 6 8 -4 17 -1 21 5 4 6 3 8 -4 4 -6 -3 -13 -2 -17 4 -3 5 2 10 12 11
11 0 13 3 5 6 -7 3 -18 0 -25 -6 -10 -7 -13 -5 -14 10 -1 12 3 17 10 13 7 -3
4 1 -6 10 -11 8 -24 13 -30 12 -7 -2 -9 -1 -4 1 4 3 7 9 7 14 0 6 -5 7 -12 3
-7 -5 -9 -2 -6 7 3 8 0 23 -8 34 -8 10 -14 14 -14 9 0 -6 5 -15 10 -20 7 -7 6
-11 -3 -11 -8 0 -14 5 -14 11 0 6 -4 23 -8 39 -5 17 -3 27 4 27 6 0 11 5 11
11 0 8 -5 8 -15 -1 -10 -9 -15 -9 -15 -1 0 6 -5 11 -12 11 -9 0 -9 -3 0 -12
15 -15 15 -28 1 -28 -5 0 -8 4 -4 9 3 5 1 12 -4 15 -5 3 -7 15 -4 25 3 10 -1
22 -8 26 -8 6 -10 4 -4 -5 5 -8 4 -11 -2 -7 -6 4 -10 23 -8 42 1 20 -3 35 -9
35 -6 0 0 7 12 16 12 8 20 19 17 24 -3 4 4 6 15 3 12 -3 20 0 20 6 0 7 -5 9
-12 5 -7 -4 -8 -3 -4 5 4 6 13 10 20 9 6 -2 13 2 15 7 1 6 9 14 17 18 12 7 13
12 3 23 -10 13 -8 14 15 10 23 -4 26 -3 16 10 -10 11 -10 14 -1 14 8 0 7 6 -3
16 -21 20 -20 23 4 17 14 -4 30 4 49 25 16 17 33 27 38 24 4 -4 0 3 -10 15
-19 22 -9 26 23 9 8 -4 2 5 -15 19 -16 15 -24 24 -17 20 7 -4 19 -1 28 5 11
10 12 16 2 27 -9 11 -8 13 3 11 8 -2 13 2 12 8 -1 6 5 11 12 11 10 0 12 -4 5
-12 -5 -7 -6 -16 -2 -20 4 -5 0 -5 -8 0 -8 5 -12 4 -7 0 4 -5 0 -16 -8 -25
-14 -15 -14 -18 -2 -23 9 -3 14 1 13 11 0 9 5 16 12 14 8 -1 11 2 7 8 -3 5 0
10 7 10 10 0 10 2 1 8 -9 6 -5 17 16 39 16 18 31 30 33 27 3 -2 5 3 5 11 0 8
-5 11 -10 8 -6 -3 -5 2 1 12 11 20 42 29 42 13 0 -6 -8 -7 -17 -3 -14 5 -15 3
-6 -6 15 -15 34 -3 31 19 -2 9 2 16 9 15 7 -2 10 3 7 11 -3 8 5 21 18 30 12 9
18 16 13 16 -6 0 -10 11 -10 24 0 18 3 22 12 14 9 -7 11 -3 7 16 -2 15 0 26 6
26 6 0 8 -4 5 -10 -3 -5 -1 -10 5 -10 6 0 8 -5 4 -12 -4 -7 -3 -8 4 -4 6 4 8
14 5 23 -5 12 -3 14 8 8 11 -7 12 -6 2 6 -8 10 -9 19 -1 29 8 12 9 12 4 -2 -3
-10 -1 -18 4 -18 6 0 11 10 11 23 3 49 4 52 29 51 23 -2 23 -1 5 12 -17 12
-17 14 -2 14 9 0 17 5 17 11 0 5 5 7 12 3 7 -5 8 -3 3 6 -6 9 -4 12 6 8 10 -4
15 1 16 14 2 17 0 18 -14 6 -14 -11 -15 -11 -8 2 6 8 10 20 10 25 0 12 26 14
42 3 7 -6 14 -4 19 4 4 7 4 10 -1 6 -4 -4 -14 0 -21 10 -9 11 -13 13 -14 4 0
-7 -5 -10 -10 -7 -6 4 -8 10 -5 15 3 5 -8 16 -25 25 -21 11 -30 12 -30 4 0 -7
-3 -10 -6 -7 -3 4 0 16 6 28 7 13 7 20 2 16 -6 -3 -12 0 -15 6 -3 9 -11 7 -28
-7 l-23 -20 18 30 c19 30 19 30 -1 13 -23 -21 -34 -23 -29 -5 1 6 1 9 -2 4 -9
-16 -61 -37 -67 -26 -5 7 -11 6 -21 -2 -8 -6 -17 -9 -21 -5 -3 3 0 6 8 6 7 0
2 8 -11 17 -32 22 -50 25 -43 6 3 -8 12 -12 19 -9 8 3 14 2 14 -3 0 -5 -11
-11 -25 -13 -13 -3 -22 -1 -19 3 3 5 2 14 -1 19 -10 16 -37 -10 -31 -27 4 -8
1 -11 -5 -7 -6 3 -9 14 -6 24 3 13 0 17 -9 13 -8 -3 -11 -10 -7 -17 3 -6 3 -8
-2 -4 -4 4 -15 2 -23 -5 -13 -10 -14 -9 -4 10 9 16 9 24 0 29 -7 4 -8 3 -4 -5
4 -6 0 -14 -8 -17 -9 -3 -14 -10 -11 -14 3 -5 0 -12 -6 -16 -8 -4 -9 -3 -5 5
5 8 0 10 -18 7 -17 -3 -24 -1 -20 5 3 6 -7 4 -24 -5 -16 -8 -33 -12 -37 -8 -4
4 -2 -3 4 -15 10 -19 9 -23 -4 -23 -10 0 -13 5 -9 12 4 7 3 8 -4 4 -7 -4 -12
-14 -12 -22 0 -9 5 -12 12 -8 7 5 8 3 3 -5 -5 -8 -11 -9 -17 -3 -6 6 -20 -1
-40 -22 -17 -17 -35 -30 -40 -28 -5 1 -7 -2 -4 -7 4 -5 -2 -14 -11 -20 -14 -8
-15 -11 -3 -12 8 -1 18 -1 23 0 4 0 7 -3 7 -8 0 -14 -48 -19 -62 -7 -8 7 -7 5
1 -7 9 -11 21 -15 35 -12 19 5 19 5 3 -5 -10 -6 -14 -16 -10 -23 4 -7 -2 -5
-12 3 -11 9 -16 10 -11 3 4 -8 2 -13 -4 -13 -6 0 -8 -5 -5 -10 4 -6 11 -7 17
-4 7 4 8 2 4 -4 -4 -6 -13 -9 -21 -5 -11 4 -13 1 -8 -13 6 -17 5 -17 -10 -5
-15 12 -17 12 -12 -2 4 -8 1 -18 -6 -23 -7 -4 -10 -3 -5 4 3 6 1 14 -6 18 -7
4 -10 4 -6 -1 4 -4 2 -15 -5 -23 -8 -11 -8 -14 0 -9 6 4 14 3 17 -2 7 -11 -18
-22 -30 -13 -5 4 -1 0 8 -10 21 -19 23 -29 6 -25 -7 1 -13 -2 -13 -8 -4 -27
-18 -43 -33 -38 -12 5 -14 2 -9 -11 4 -10 -1 -25 -13 -38 -11 -12 -17 -25 -13
-31 3 -5 -3 -4 -14 1 -17 9 -19 7 -17 -19 1 -16 -2 -26 -7 -23 -5 3 -9 0 -9
-7 0 -7 -3 -10 -6 -7 -3 4 0 17 7 30 11 20 10 21 -3 11 -8 -7 -17 -10 -20 -8
-3 3 -4 -7 -2 -22 2 -15 1 -20 -2 -10 -4 11 -12 16 -20 13 -8 -3 -13 -2 -10 3
3 5 -1 14 -9 21 -16 13 -10 35 6 24 5 -3 7 -9 4 -14 -3 -5 -1 -11 5 -15 15 -9
12 21 -4 34 -7 6 -20 10 -27 8 -8 -2 -11 -2 -6 0 17 10 5 24 -15 18 -19 -5
-20 -4 -8 5 11 9 12 13 2 17 -6 2 -10 9 -6 14 3 5 -2 9 -11 9 -9 0 -21 13 -26
30 -6 16 -15 27 -20 24 -5 -3 -9 2 -9 12 0 14 -2 15 -17 3 -16 -12 -16 -12 -6
1 9 12 8 19 -3 34 -8 11 -14 29 -15 40 0 12 -3 15 -6 9 -2 -7 -9 -13 -14 -13
-4 0 -5 7 -2 17 4 11 3 14 -5 9 -8 -5 -10 -1 -5 10 4 11 2 15 -4 11 -6 -4 -9
3 -7 18 1 18 -6 31 -26 45 -15 11 -30 16 -34 12 -4 -4 -6 0 -4 8 2 10 -3 14
-17 12 -18 -3 -18 -2 3 13 17 12 20 21 13 28 -7 7 -15 6 -27 -4 -16 -13 -16
-12 -4 11 l13 24 -25 -16 c-26 -17 -26 -17 -24 12 2 30 -7 39 -19 20 -3 -5
-12 -10 -18 -9 -9 0 -9 2 1 6 6 2 12 9 12 14 0 4 -7 5 -17 2 -12 -5 -14 -3 -8
7 5 8 3 11 -6 8 -8 -3 -13 -11 -11 -17 1 -8 -4 -8 -18 1 -22 14 -21 17 10 23
39 8 32 12 -17 11 -35 -1 -47 3 -45 12 1 8 -2 11 -8 7 -8 -5 -8 -11 1 -21 6
-7 16 -11 22 -7 5 3 7 1 4 -5 -8 -12 -47 -4 -47 11 0 6 -3 7 -7 4 -3 -4 -12 1
-20 11 -12 16 -13 16 -7 -1 4 -10 18 -25 33 -33 14 -8 17 -12 6 -8 -11 4 -31
7 -45 7 -14 0 -19 2 -12 4 6 3 12 9 12 14 0 4 -7 6 -15 3 -11 -5 -14 -1 -9 12
4 14 3 16 -4 5 -8 -11 -10 -11 -15 0 -3 8 -4 4 -4 -8 1 -12 4 -20 7 -18 4 2 7
-2 7 -9 0 -7 -6 -13 -13 -13 -7 0 -13 3 -12 6 2 19 -3 31 -11 26 -5 -3 -17 3
-27 12 -15 15 -17 16 -12 2 5 -12 0 -16 -17 -16 -16 0 -22 4 -18 13 3 8 -1 14
-8 14 -7 0 -9 -3 -6 -7 4 -3 1 -13 -6 -21 -6 -9 -7 -13 -1 -9 6 3 11 0 11 -7
0 -7 -6 -13 -13 -13 -7 0 -11 11 -9 24 2 18 -1 21 -11 13 -9 -8 -15 -7 -21 3
-7 13 -10 13 -20 1z m100 -29 c-3 -9 -8 -14 -10 -11 -3 3 -2 9 2 15 9 16 15
13 8 -4z m52 6 c3 -5 0 -13 -6 -17 -8 -4 -9 -3 -5 4 10 16 -6 15 -24 0 -12
-11 -12 -10 -1 5 15 19 27 22 36 8z m1469 -16 c-4 -8 -8 -15 -10 -15 -2 0 -4
7 -4 15 0 8 4 15 10 15 5 0 7 -7 4 -15z m-409 -5 c-3 -5 -12 -10 -18 -10 -7 0
-6 4 3 10 19 12 23 12 15 0z m456 -42 c11 -21 11 -22 -4 -9 -10 7 -17 17 -17
22 0 15 9 10 21 -13z m-1171 -22 c0 -3 -4 -8 -10 -11 -5 -3 -10 -1 -10 4 0 6
5 11 10 11 6 0 10 -2 10 -4z m624 -17 c-10 -12 -19 -24 -19 -28 0 -3 -3 -5 -7
-3 -5 1 -8 -2 -8 -7 0 -5 -8 -12 -17 -16 -10 -3 0 12 22 34 40 42 63 57 29 20z
m-1177 -44 c0 -8 -4 -12 -9 -9 -5 3 -6 10 -3 15 9 13 12 11 12 -6z m607 -23
c2 -4 -4 -8 -15 -8 -10 0 -19 4 -19 8 0 4 6 8 14 8 8 0 17 -4 20 -8z m-477
-134 c-3 -8 -6 -5 -6 6 -1 11 2 17 5 13 3 -3 4 -12 1 -19z m1442 -74 c-6 -8
-17 -14 -23 -14 -6 0 -4 5 4 10 8 5 11 10 7 10 -5 0 -5 5 -2 10 4 6 11 8 16 4
6 -4 6 -11 -2 -20z m-29 -34 c0 -5 -4 -10 -10 -10 -5 0 -10 5 -10 10 0 6 5 10
10 10 6 0 10 -4 10 -10z m-1298 -27 c-6 -2 -10 -9 -6 -14 3 -5 0 -9 -5 -9 -12
0 -14 13 -4 23 3 4 11 7 17 6 6 0 5 -3 -2 -6z m1238 -53 c0 -5 -2 -10 -4 -10
-2 0 -12 -3 -22 -7 -16 -6 -17 -5 -4 10 17 19 30 22 30 7z m-1165 -60 c3 -5 1
-10 -4 -10 -6 0 -11 5 -11 10 0 6 2 10 4 10 3 0 8 -4 11 -10z m1059 -94 c-3
-8 -16 -21 -28 -30 -19 -12 -23 -12 -23 -1 0 8 4 12 8 9 5 -3 14 4 21 16 15
23 30 27 22 6z m-80 -92 c3 -8 2 -12 -4 -9 -6 3 -10 10 -10 16 0 14 7 11 14
-7z m-19 -42 c-3 -3 -11 0 -18 7 -9 10 -8 11 6 5 10 -3 15 -9 12 -12z m-21
-18 c3 -8 2 -12 -4 -9 -6 3 -10 10 -10 16 0 14 7 11 14 -7z m190 -482 c3 -5
-1 -9 -9 -9 -8 0 -12 4 -9 9 3 4 7 8 9 8 2 0 6 -4 9 -8z m-1224 -126 c0 -3 -4
-8 -10 -11 -5 -3 -10 -1 -10 4 0 6 5 11 10 11 6 0 10 -2 10 -4z m-36 -20 c-3
-8 -12 -17 -20 -20 -9 -3 -12 -11 -8 -17 5 -8 3 -9 -5 -4 -9 5 -7 13 10 31 26
28 31 30 23 10z m866 -86 c0 -5 -5 -10 -11 -10 -5 0 -7 5 -4 10 3 6 8 10 11
10 2 0 4 -4 4 -10z m-1070 -225 c-7 -8 -9 -15 -4 -15 5 0 1 -5 -9 -11 -9 -6
-14 -15 -11 -21 4 -7 2 -8 -5 -4 -9 6 -9 11 0 22 6 8 8 14 3 14 -5 0 0 7 10
15 25 19 32 19 16 0z m1825 -45 c-5 -8 -11 -8 -17 -2 -6 6 -7 16 -3 22 5 8 11
8 17 2 6 -6 7 -16 3 -22z m-56 -47 c-30 -35 -69 -54 -69 -34 0 6 9 8 20 6 11
-2 20 -1 20 3 0 9 49 62 56 62 4 0 -9 -17 -27 -37z m-1705 -8 c-7 -18 -20 -19
-30 -3 -4 6 -3 8 4 4 6 -3 13 -2 17 4 9 15 15 12 9 -5z m396 -9 c0 -3 -4 -8
-10 -11 -5 -3 -10 -1 -10 4 0 6 5 11 10 11 6 0 10 -2 10 -4z m998 -4 c15 12
16 11 3 -4 -14 -19 -32 -15 -30 5 0 8 2 8 6 -1 4 -10 8 -10 21 0z"/>
<path d="M3041 3513 c-18 -19 -10 -25 12 -8 10 7 15 15 10 18 -4 3 -14 -2 -22
-10z"/>
<path d="M3436 3482 c-3 -4 4 -9 15 -9 23 -2 25 3 4 10 -8 4 -16 3 -19 -1z"/>
<path d="M1695 3460 c-3 -5 -1 -10 4 -10 6 0 11 5 11 10 0 6 -2 10 -4 10 -3 0
-8 -4 -11 -10z"/>
<path d="M2290 3381 c0 -5 7 -15 17 -22 15 -13 15 -12 4 9 -12 23 -21 28 -21
13z"/>
<path d="M740 3301 c0 -7 -5 -9 -12 -5 -7 5 -8 3 -3 -5 5 -9 10 -10 18 -2 6 6
8 14 4 18 -4 3 -7 1 -7 -6z"/>
<path d="M3400 3285 c0 -5 5 -17 10 -25 5 -8 10 -10 10 -5 0 6 -5 17 -10 25
-5 8 -10 11 -10 5z"/>
<path d="M3990 3276 c0 -2 9 -6 20 -9 11 -3 18 -1 14 4 -5 9 -34 13 -34 5z"/>
<path d="M2400 3225 c0 -5 5 -17 10 -25 5 -8 10 -10 10 -5 0 6 -5 17 -10 25
-5 8 -10 11 -10 5z"/>
<path d="M2706 3134 c-8 -22 -8 -39 2 -30 4 4 7 11 7 14 0 4 4 13 8 20 5 6 4
12 -1 12 -6 0 -13 -7 -16 -16z"/>
<path d="M4186 3128 c5 -7 9 -16 9 -20 0 -3 4 -10 9 -15 5 -4 6 -3 3 4 -4 6
-1 13 5 15 8 3 4 10 -11 17 -19 11 -22 11 -15 -1z"/>
<path d="M4714 3068 c-4 -7 -4 -10 1 -6 4 4 14 0 21 -10 7 -9 14 -12 14 -6 0
6 -6 17 -14 23 -11 9 -16 9 -22 -1z"/>
<path d="M2660 3059 c0 -5 -4 -7 -10 -4 -6 4 -7 -1 -3 -11 5 -13 3 -15 -7 -9
-9 5 -11 4 -6 -3 10 -16 11 -16 30 13 9 14 12 25 6 25 -5 0 -10 -5 -10 -11z"/>
<path d="M456 3048 c3 -5 10 -6 15 -3 13 9 11 12 -6 12 -8 0 -12 -4 -9 -9z"/>
<path d="M4821 2994 c0 -11 3 -14 6 -6 3 7 2 16 -1 19 -3 4 -6 -2 -5 -13z"/>
<path d="M1970 2993 c1 -10 25 -43 33 -43 3 0 4 7 3 16 -3 16 -36 42 -36 27z"/>
<path d="M4860 2959 c0 -22 36 -54 45 -39 3 6 1 9 -6 8 -7 -2 -18 8 -26 22 -8
16 -13 19 -13 9z"/>
<path d="M710 2901 c0 -6 4 -12 8 -15 5 -3 9 1 9 9 0 8 -4 15 -9 15 -4 0 -8
-4 -8 -9z"/>
<path d="M2050 2901 c0 -5 7 -12 16 -15 14 -5 15 -4 4 9 -14 17 -20 19 -20 6z"/>
<path d="M670 2859 c0 -5 5 -7 10 -4 6 3 10 8 10 11 0 2 -4 4 -10 4 -5 0 -10
-5 -10 -11z"/>
<path d="M2070 2866 c0 -2 7 -7 16 -10 8 -3 12 -2 9 4 -6 10 -25 14 -25 6z"/>
<path d="M2100 2820 c-9 -6 -10 -10 -3 -10 6 0 15 5 18 10 8 12 4 12 -15 0z"/>
<path d="M550 2759 c0 -5 5 -7 10 -4 6 3 10 8 10 11 0 2 -4 4 -10 4 -5 0 -10
-5 -10 -11z"/>
<path d="M507 2742 c-20 -21 -22 -32 -6 -32 5 0 8 4 5 9 -8 12 19 33 29 23 5
-4 5 -1 1 6 -9 16 -10 15 -29 -6z"/>
<path d="M4740 2680 c-9 -6 -10 -10 -3 -10 6 0 15 5 18 10 8 12 4 12 -15 0z"/>
<path d="M2223 2647 c-4 -6 -1 -7 6 -3 8 5 14 0 18 -13 3 -12 10 -21 15 -21 6
0 7 -7 4 -16 -4 -9 -1 -23 5 -30 8 -10 8 -14 0 -14 -6 0 -11 -5 -11 -11 0 -8
5 -8 15 1 11 9 12 16 4 26 -6 7 -8 18 -4 23 3 6 -1 21 -10 34 -8 13 -13 26
-10 29 3 2 -2 5 -10 5 -9 0 -19 -5 -22 -10z"/>
<path d="M4758 2653 c7 -3 16 -2 19 1 4 3 -2 6 -13 5 -11 0 -14 -3 -6 -6z"/>
<path d="M2929 2628 c-6 -25 -6 -38 1 -38 12 0 20 29 10 35 -6 4 -10 5 -11 3z"/>
<path d="M15 2510 c-3 -5 -1 -10 4 -10 6 0 11 5 11 10 0 6 -2 10 -4 10 -3 0
-8 -4 -11 -10z"/>
<path d="M4630 2461 c0 -6 4 -13 10 -16 6 -3 7 1 4 9 -7 18 -14 21 -14 7z"/>
<path d="M5015 2380 c-3 -5 -1 -10 4 -10 6 0 11 5 11 10 0 6 -2 10 -4 10 -3 0
-8 -4 -11 -10z"/>
<path d="M4503 2353 c0 -10 4 -10 16 -1 9 7 18 13 20 15 2 1 -5 1 -16 0 -11 0
-20 -7 -20 -14z"/>
<path d="M4810 2219 c0 -5 5 -7 10 -4 6 3 10 8 10 11 0 2 -4 4 -10 4 -5 0 -10
-5 -10 -11z"/>
<path d="M426 2158 c3 -4 9 -8 15 -8 5 0 9 4 9 8 0 5 -7 9 -15 9 -8 0 -12 -4
-9 -9z"/>
<path d="M2595 2140 c-3 -5 -1 -10 4 -10 6 0 11 5 11 10 0 6 -2 10 -4 10 -3 0
-8 -4 -11 -10z"/>
<path d="M3230 2140 c0 -6 7 -10 15 -10 8 0 15 2 15 4 0 2 -7 6 -15 10 -8 3
-15 1 -15 -4z"/>
<path d="M2620 2131 c0 -6 4 -13 10 -16 6 -3 7 1 4 9 -7 18 -14 21 -14 7z"/>
<path d="M490 2120 c0 -5 5 -10 11 -10 5 0 7 5 4 10 -3 6 -8 10 -11 10 -2 0
-4 -4 -4 -10z"/>
<path d="M2697 2054 c7 -3 9 -13 6 -22 -4 -14 -3 -14 5 -2 12 16 7 30 -11 29
-9 0 -9 -2 0 -5z"/>
<path d="M3286 2051 c-3 -5 2 -15 12 -22 15 -12 16 -12 5 2 -7 9 -10 19 -6 22
3 4 4 7 0 7 -3 0 -8 -4 -11 -9z"/>
<path d="M4145 2049 c-4 -6 -5 -12 -2 -15 2 -3 7 2 10 11 7 17 1 20 -8 4z"/>
<path d="M4573 2025 c0 -7 6 -11 14 -8 7 3 13 6 13 8 0 2 -6 5 -13 8 -8 3 -14
-1 -14 -8z"/>
<path d="M2720 2020 c0 -5 5 -10 11 -10 5 0 7 5 4 10 -3 6 -8 10 -11 10 -2 0
-4 -4 -4 -10z"/>
<path d="M3325 2020 c-3 -5 -1 -10 4 -10 6 0 11 5 11 10 0 6 -2 10 -4 10 -3 0
-8 -4 -11 -10z"/>
<path d="M4540 2000 c-9 -6 -10 -10 -3 -10 6 0 15 5 18 10 8 12 4 12 -15 0z"/>
<path d="M4035 1960 c3 -5 8 -10 11 -10 2 0 4 5 4 10 0 6 -5 10 -11 10 -5 0
-7 -4 -4 -10z"/>
<path d="M3417 1895 c-4 -8 -3 -16 1 -19 4 -3 9 4 9 15 2 23 -3 25 -10 4z"/>
<path d="M1240 1866 c0 -2 7 -6 15 -10 8 -3 15 -1 15 4 0 6 -7 10 -15 10 -8 0
-15 -2 -15 -4z"/>
<path d="M1693 1825 c0 -8 4 -12 9 -9 5 3 6 10 3 15 -9 13 -12 11 -12 -6z"/>
<path d="M2346 1802 c-3 -5 1 -9 9 -9 8 0 12 4 9 9 -3 4 -7 8 -9 8 -2 0 -6 -4
-9 -8z"/>
<path d="M2312 1787 c-7 -8 -7 -18 -2 -27 6 -8 10 -10 11 -5 0 6 2 18 4 28 4
20 1 21 -13 4z"/>
<path d="M1255 1780 c3 -5 8 -10 11 -10 2 0 4 5 4 10 0 6 -5 10 -11 10 -5 0
-7 -4 -4 -10z"/>
<path d="M4295 1780 c-3 -6 1 -7 9 -4 18 7 21 14 7 14 -6 0 -13 -4 -16 -10z"/>
<path d="M3010 1666 c0 -4 7 -14 15 -22 8 -9 15 -11 15 -6 0 5 -7 15 -15 22
-8 7 -15 9 -15 6z"/>
<path d="M1843 1622 c-7 -4 -9 -13 -4 -21 6 -9 10 -7 14 8 3 12 4 21 4 21 -1
0 -7 -4 -14 -8z"/>
<path d="M1963 1622 c-7 -4 -9 -13 -4 -21 6 -9 10 -7 14 8 3 12 4 21 4 21 -1
0 -7 -4 -14 -8z"/>
<path d="M3325 1620 c-3 -5 -3 -14 0 -20 7 -11 45 9 45 24 0 5 -10 1 -22 -10
-19 -17 -21 -17 -15 -1 7 18 2 23 -8 7z"/>
<path d="M1757 1605 c3 -8 9 -12 14 -9 12 7 11 11 -5 17 -10 4 -13 1 -9 -8z"/>
<path d="M1802 1606 c7 -8 15 -12 17 -11 5 6 -10 25 -20 25 -5 0 -4 -6 3 -14z"/>
<path d="M3277 1602 c3 -7 9 -10 12 -5 3 4 10 11 15 15 4 4 -1 6 -12 5 -12 -1
-18 -6 -15 -15z"/>
<path d="M3376 1603 c-6 -14 -5 -15 5 -6 7 7 10 15 7 18 -3 3 -9 -2 -12 -12z"/>
</g>
</svg>
